<?xml version="1.0" encoding="UTF-8" standalone="no"?>
<!DOCTYPE svg PUBLIC "-//W3C//DTD SVG 1.1//EN" "http://www.w3.org/Graphics/SVG/1.1/DTD/svg11.dtd">
<svg width="100%" height="100%" viewBox="0 0 450 450" version="1.1" xmlns="http://www.w3.org/2000/svg" xmlns:xlink="http://www.w3.org/1999/xlink" xml:space="preserve" xmlns:serif="http://www.serif.com/" style="fill-rule:evenodd;clip-rule:evenodd;stroke-linejoin:round;stroke-miterlimit:2;">
    <g transform="matrix(1,0,0,1,0,-3337.51)">
        <g id="Logo" transform="matrix(0.362903,0,0,0.75,0,3337.51)">
            <rect x="0" y="0" width="1240" height="600" style="fill:none;"/>
            <g>
                <g id="Board" transform="matrix(4.28218,0,0,3.21842,-377.749,-190.359)">
                    <path d="M331,100.886C331,89.903 317.171,81 300.112,81L165.888,81C148.829,81 135,89.903 135,100.886L135,119L331,119L331,100.886Z" style="fill:rgb(222,132,72);"/>
                </g>
                <g id="Board1" serif:id="Board" transform="matrix(4.28218,0,0,3.21754,-377.749,-67.9877)">
                    <rect x="135" y="81" width="196" height="38" style="fill:rgb(205,107,47);"/>
                </g>
                <g id="Board2" serif:id="Board" transform="matrix(4.28218,0,0,3.21754,-377.749,54.2789)">
                    <rect x="135" y="81" width="196" height="38" style="fill:rgb(170,87,38);"/>
                </g>
                <g id="Board3" serif:id="Board" transform="matrix(4.28218,0,0,3.21754,-377.749,176.546)">
                    <path d="M331,81L135,81L135,99.109C135,110.095 148.829,119 165.888,119L300.112,119C317.171,119 331,110.095 331,99.109L331,81Z" style="fill:rgb(122,57,22);"/>
                </g>
                <g id="Clip" transform="matrix(2.75556,0,0,2.10351,-22.0444,-140.018)">
                    <path d="M331,91.142C331,88.452 329.314,85.872 326.314,83.97C323.313,82.069 319.243,81 315,81L151,81C146.757,81 142.687,82.069 139.686,83.97C136.686,85.872 135,88.452 135,91.142C135,96.625 135,103.375 135,108.858C135,111.548 136.686,114.128 139.686,116.03C142.687,117.931 146.757,119 151,119L315,119C319.243,119 323.313,117.931 326.314,116.03C329.314,114.128 331,111.548 331,108.858C331,103.375 331,96.625 331,91.142Z" style="fill:url(#_Linear1);"/>
                </g>
            </g>
            <g transform="matrix(2.60387,0,0,1.12484,34.1284,-2619.18)">
                <path d="M121.291,2391.03L121.291,2407.59C121.291,2412.62 123.075,2417.44 126.251,2421C129.426,2424.56 133.733,2426.56 138.223,2426.56L311.777,2426.56C316.267,2426.56 320.574,2424.56 323.749,2421C326.925,2417.44 328.709,2412.62 328.709,2407.59L328.709,2391.03L338.233,2391.03L338.233,2411.71C338.233,2418 336.003,2424.03 332.034,2428.47C328.065,2432.92 322.681,2435.42 317.068,2435.42C274.078,2435.42 176.98,2435.42 133.99,2435.42C128.377,2435.42 122.994,2432.92 119.024,2428.47C115.055,2424.03 112.825,2418 112.825,2411.71C112.825,2401.14 112.825,2391.03 112.825,2391.03L121.291,2391.03Z" style="fill:url(#_Linear2);"/>
            </g>
        </g>
    </g>
    <defs>
        <linearGradient id="_Linear1" x1="0" y1="0" x2="1" y2="0" gradientUnits="userSpaceOnUse" gradientTransform="matrix(3.67088e-15,38,-59.95,2.32683e-15,233,81)"><stop offset="0" style="stop-color:rgb(204,204,204);stop-opacity:1"/><stop offset="1" style="stop-color:rgb(179,179,179);stop-opacity:1"/></linearGradient>
        <linearGradient id="_Linear2" x1="0" y1="0" x2="1" y2="0" gradientUnits="userSpaceOnUse" gradientTransform="matrix(1.94236e-15,35.5311,-31.7211,2.17565e-15,227.479,2391.02)"><stop offset="0" style="stop-color:black;stop-opacity:0"/><stop offset="1" style="stop-color:black;stop-opacity:0.2"/></linearGradient>
    </defs>
</svg>
