<?xml version="1.0" encoding="UTF-8" standalone="no"?>
<!DOCTYPE svg PUBLIC "-//W3C//DTD SVG 1.1//EN" "http://www.w3.org/Graphics/SVG/1.1/DTD/svg11.dtd">
<svg width="100%" height="100%" viewBox="0 0 450 450" version="1.1" xmlns="http://www.w3.org/2000/svg" xmlns:xlink="http://www.w3.org/1999/xlink" xml:space="preserve" xmlns:serif="http://www.serif.com/" style="fill-rule:evenodd;clip-rule:evenodd;stroke-linecap:round;stroke-linejoin:round;stroke-miterlimit:1.5;">
    <g transform="matrix(1,0,0,1,-1771.67,-1145.83)">
        <g id="Logo-small-high-contrast-dark" serif:id="Logo small high-contrast dark" transform="matrix(0.362903,0,0,0.75,1771.67,1145.83)">
            <rect x="0" y="0" width="1240" height="600"/>
            <clipPath id="_clip1">
                <rect x="0" y="0" width="1240" height="600"/>
            </clipPath>
            <g clip-path="url(#_clip1)">
                <g transform="matrix(1.5496,0,0,1.5496,-340.752,-164.88)">
                    <g transform="matrix(2.78146,0,0,1.10021,-9705.12,-49.4722)">
                        <path d="M3819.96,449.251L3604.28,449.251L3604.28,479.945C3604.28,482.019 3604.96,484.008 3606.16,485.475C3607.35,486.941 3608.98,487.765 3610.68,487.765L3813.56,487.765C3815.26,487.765 3816.88,486.941 3818.08,485.475C3819.28,484.008 3819.96,482.019 3819.96,479.945L3819.96,449.251Z" style="fill:rgb(137,144,151);fill-opacity:0;stroke:white;stroke-width:10.5px;"/>
                    </g>
                    <g id="Button-Light" serif:id="Button/Light" transform="matrix(2.60482,0,0,1.2604,-953.971,-20.613)">
                        <circle cx="511.691" cy="386.067" r="7.081" style="fill:white;"/>
                    </g>
                    <g transform="matrix(2.73148,0,0,0.633309,-9522.22,-171.578)">
                        <path d="M3821.88,456.046C3821.88,454.244 3821.54,452.515 3820.93,451.241C3820.32,449.967 3819.49,449.251 3818.63,449.251C3793.64,449.251 3632.53,449.251 3607.54,449.251C3606.67,449.251 3605.85,449.966 3605.24,451.24C3604.62,452.514 3604.28,454.242 3604.28,456.044L3604.28,487.765L3821.88,487.765C3821.88,487.765 3821.88,467.102 3821.88,456.046Z" style="fill:rgb(137,144,151);fill-opacity:0;stroke:white;stroke-width:12.45px;"/>
                    </g>
                    <g transform="matrix(2.5128,0,0,0.925403,-8696.23,-5.5736)">
                        <path d="M3826.88,486.676L3588.15,486.676L3612.02,247.944L3803.01,247.944L3826.88,486.676Z" style="fill:url(#_Linear2);stroke:white;stroke-width:11.95px;"/>
                    </g>
                    <g transform="matrix(2.05514,0,0,0.760055,-6999.45,55.1605)">
                        <path d="M3826.24,480.282C3826.4,481.897 3826.03,483.525 3825.2,484.75C3824.38,485.974 3823.2,486.676 3821.95,486.676C3791.02,486.676 3624.01,486.676 3593.08,486.676C3591.83,486.676 3590.65,485.974 3589.83,484.75C3589.01,483.525 3588.63,481.897 3588.79,480.282C3592.23,445.89 3608.48,283.334 3611.53,252.87C3611.81,250.051 3613.65,247.944 3615.82,247.944C3640.23,247.944 3774.8,247.944 3799.21,247.944C3801.38,247.944 3803.22,250.051 3803.5,252.87C3806.55,283.334 3822.8,445.89 3826.24,480.282Z" style="fill:white;"/>
                    </g>
                    <g transform="matrix(2.5128,3.02915e-17,-5.06176e-20,-0.362525,-8696.23,313.76)">
                        <path d="M3825.79,486.676L3589.25,486.676L3612.02,247.944L3803.01,247.944L3825.79,486.676Z" style="fill:url(#_Linear3);stroke:white;stroke-width:14.39px;"/>
                    </g>
                </g>
            </g>
        </g>
    </g>
    <defs>
        <linearGradient id="_Linear2" x1="0" y1="0" x2="1" y2="0" gradientUnits="userSpaceOnUse" gradientTransform="matrix(1.1126e-14,-238.733,181.701,1.46182e-14,3707.52,486.676)"><stop offset="0" style="stop-color:rgb(106,115,123);stop-opacity:0"/><stop offset="0.62" style="stop-color:rgb(98,107,114);stop-opacity:0"/><stop offset="0.82" style="stop-color:rgb(78,86,92);stop-opacity:0"/><stop offset="1" style="stop-color:rgb(56,63,69);stop-opacity:0"/></linearGradient>
        <linearGradient id="_Linear3" x1="0" y1="0" x2="1" y2="0" gradientUnits="userSpaceOnUse" gradientTransform="matrix(3.62064e-15,238.733,83.3107,-1.26391e-14,3703.04,247.944)"><stop offset="0" style="stop-color:rgb(56,63,69);stop-opacity:0"/><stop offset="0.2" style="stop-color:rgb(76,84,91);stop-opacity:0"/><stop offset="0.42" style="stop-color:rgb(96,106,113);stop-opacity:0"/><stop offset="1" style="stop-color:rgb(106,116,123);stop-opacity:0"/></linearGradient>
    </defs>
</svg>
