<?xml version="1.0" encoding="UTF-8" standalone="no"?>
<!DOCTYPE svg PUBLIC "-//W3C//DTD SVG 1.1//EN" "http://www.w3.org/Graphics/SVG/1.1/DTD/svg11.dtd">
<svg width="100%" height="100%" viewBox="0 0 450 450" version="1.1" xmlns="http://www.w3.org/2000/svg" xmlns:xlink="http://www.w3.org/1999/xlink" xml:space="preserve" xmlns:serif="http://www.serif.com/" style="fill-rule:evenodd;clip-rule:evenodd;stroke-linecap:round;stroke-linejoin:round;stroke-miterlimit:1.5;">
    <g transform="matrix(1,0,0,1,-1181.11,-1145.83)">
        <g id="Logo-no-shadow-high-contrast-dark" serif:id="Logo no shadow high-contrast dark" transform="matrix(0.362903,0,0,0.75,1181.11,1145.83)">
            <rect x="0" y="0" width="1240" height="600"/>
            <g transform="matrix(1.5496,0,0,1.5496,-340.752,-164.88)">
                <g transform="matrix(2.78146,0,0,1.15179,-9705.12,-72.6427)">
                    <path d="M3819.96,449.251L3604.28,449.251L3604.28,480.295C3604.28,484.421 3607.14,487.765 3610.68,487.765C3642.32,487.765 3781.92,487.765 3813.56,487.765C3817.09,487.765 3819.96,484.421 3819.96,480.295L3819.96,449.251Z" style="fill:rgb(137,144,151);fill-opacity:0;stroke:white;stroke-width:6.87px;"/>
                </g>
                <g id="Button-Light" serif:id="Button/Light" transform="matrix(3.0826,0,0,1.49158,-1193.23,-108.872)">
                    <circle cx="511.691" cy="386.067" r="7.081" style="fill:white;"/>
                </g>
                <g transform="matrix(2.73148,0,0,0.492612,-9522.22,-110.465)">
                    <path d="M3821.88,457.987C3821.88,455.671 3821.54,453.448 3820.93,451.81C3820.32,450.171 3819.49,449.251 3818.63,449.251C3793.63,449.251 3632.53,449.251 3607.54,449.251C3605.74,449.251 3604.28,453.161 3604.28,457.984C3604.28,469.347 3604.28,487.765 3604.28,487.765L3821.88,487.765C3821.88,487.765 3821.88,469.351 3821.88,457.987Z" style="fill:rgb(137,144,151);fill-opacity:0;stroke:white;stroke-width:8.63px;"/>
                </g>
                <g transform="matrix(2.5128,0,0,0.925403,-8696.23,-5.5736)">
                    <path d="M3826.88,486.676L3588.15,486.676L3612.02,247.944L3803.01,247.944L3826.88,486.676Z" style="fill:url(#_Linear1);stroke:white;stroke-width:7.96px;"/>
                </g>
                <g transform="matrix(1.87141,0,0,0.728356,-6318.29,66.804)">
                    <path d="M3826.22,480.041C3826.39,481.722 3825.97,483.411 3825.07,484.68C3824.16,485.95 3822.87,486.676 3821.5,486.676C3789.59,486.676 3625.44,486.676 3593.53,486.676C3592.16,486.676 3590.87,485.95 3589.97,484.68C3589.07,483.411 3588.64,481.722 3588.81,480.041C3592.29,445.234 3608.4,284.146 3611.51,253.122C3611.8,250.164 3613.82,247.944 3616.22,247.944C3641.52,247.944 3773.51,247.944 3798.81,247.944C3801.21,247.944 3803.23,250.164 3803.53,253.122C3806.63,284.146 3822.74,445.234 3826.22,480.041Z" style="fill:white;"/>
                </g>
                <g transform="matrix(2.5128,1.9994e-17,7.91522e-18,-0.393999,-8696.23,321.564)">
                    <path d="M3825.79,486.676L3589.25,486.676L3612.02,247.944L3803.01,247.944L3825.79,486.676Z" style="fill:url(#_Linear2);stroke:white;stroke-width:9.52px;"/>
                </g>
            </g>
        </g>
    </g>
    <defs>
        <linearGradient id="_Linear1" x1="0" y1="0" x2="1" y2="0" gradientUnits="userSpaceOnUse" gradientTransform="matrix(1.1126e-14,-238.733,181.701,1.46182e-14,3707.52,486.676)"><stop offset="0" style="stop-color:rgb(106,115,123);stop-opacity:0"/><stop offset="0.62" style="stop-color:rgb(98,107,114);stop-opacity:0"/><stop offset="0.82" style="stop-color:rgb(78,86,92);stop-opacity:0"/><stop offset="1" style="stop-color:rgb(56,63,69);stop-opacity:0"/></linearGradient>
        <linearGradient id="_Linear2" x1="0" y1="0" x2="1" y2="0" gradientUnits="userSpaceOnUse" gradientTransform="matrix(3.62064e-15,238.733,83.3107,-1.26391e-14,3703.04,247.944)"><stop offset="0" style="stop-color:rgb(56,63,69);stop-opacity:0"/><stop offset="0.2" style="stop-color:rgb(76,84,91);stop-opacity:0"/><stop offset="0.42" style="stop-color:rgb(96,106,113);stop-opacity:0"/><stop offset="1" style="stop-color:rgb(106,116,123);stop-opacity:0"/></linearGradient>
    </defs>
</svg>
